<svg xmlns="http://www.w3.org/2000/svg" viewBox="0 0 64 64" fill="none">
  <defs>
    <linearGradient id="g" x1="0" y1="0" x2="1" y2="1">
      <stop offset="0%" stop-color="#3b82f6" />
      <stop offset="100%" stop-color="#60a5fa" />
    </linearGradient>
  </defs>
  <rect width="64" height="64" rx="16" fill="#0a0f1e" />
  <path d="M17 28c0-4.4 3.6-8 8-8h4v6h-4a2 2 0 0 0 0 4h6v-4h6v4h6a2 2 0 0 0 0-4h-4v-6h4c4.4 0 8 3.6 8 8s-3.6 8-8 8h-4v-6h4a2 2 0 0 0 0-4h-6v4h-6v-4h-6a2 2 0 0 0 0 4h4v6h-4c-4.4 0-8-3.6-8-8Z" fill="url(#g)" opacity="0.9" />
  <path d="M18 41c3-1 6-2 9-2 5 0 8 3 13 3 3 0 6-1 8-2" stroke="#10b981" stroke-width="3" stroke-linecap="round" stroke-linejoin="round" />
  <path d="M18 41h8l4-10 5 16 4-8h7" stroke="#10b981" stroke-width="3" stroke-linecap="round" stroke-linejoin="round" />
</svg>